JUST TEENS PORN CO ED GIRL SILVERDUST{HKRG}

Format                           : Windows Media
File size                        : 377 MiB
Duration                         : 16mn 48s
Overall bit rate mode            : Variable
Overall bit rate                 : 3 139 Kbps
Maximum Overall bit rate         : 6 154 Kbps
Encoded date                     : UTC 2008-05-25 12:53:08.106 
http://img2.immage.de/12036deb9image49868859.jpg 
http://img1.immage.de/1203a3image49873359.jpg
[img]http://img2.immage.de/12036deb9image49868859.jpg[/img]


[img]http://img1.immage.de/1203a3image49873359.jpg[/img]

 
http://www.leetleech.org/images/25378654780725389363.jpg
    	http://www.leetleech.org/images/86874817413577517891.png
    	http://www.leetleech.org/images/80707099141266829033.png
    	http://www.leetleech.org/images/62255931877173311856.png
Video
ID                               : 2
Format                           : VC-1
Format profile                   : MP@ML
Codec ID                         : WMV3
Codec ID/Info                    : Windows Media Video 9
Codec ID/Hint                    : WMV3
Description of the codec         : Windows Media Video 9
Duration                         : 16mn 48s
Bit rate mode                    : Variable
Bit rate                         : 3 000 Kbps
Width                            : 352 pixels
Height                           : 288 pixels
Display aspect ratio             : 4:3
Frame rate                       : 25.000 fps
Standard                         : PAL
Bit depth                        : 8 bits
Scan type                        : Progressive
Compression mode                 : Lossy
Bits/(Pixel*Frame)               : 1.184
Stream size                      : 361 MiB (96%)

Audio
ID                               : 1
Format                           : WMA
Format version                   : Version 2
Codec ID                         : 161
Codec ID/Info                    : Windows Media Audio
Description of the codec         : Windows Media Audio 9.2 - 127 kbps, 48 kHz, stereo Low Delay 2-pass CBR
Duration                         : 16mn 48s
Bit rate mode                    : Constant
Bit rate                         : 127 Kbps
Channel(s)                       : 2 channels
Sampling rate                    : 48.0 KHz
Bit depth                        : 16 bits
Stream size                      : 15.3 MiB (4%)

NJOI